<svg xmlns="http://www.w3.org/2000/svg" xmlns:xlink="http://www.w3.org/1999/xlink" xmlns:lucid="lucid" width="1040" height="300"><g transform="translate(-160 -180)" lucid:page-tab-id="0_0"><path d="M0 0h1870.4v1323.2H0z" fill="#fff"/><path d="M340 420h40v40h-40z" stroke="#000" stroke-width="2" fill="#c1e4f7"/><use xlink:href="#a" transform="matrix(1,0,0,1,345,425) translate(10.5 18.15)"/><path d="M300 420h40v40h-40z" stroke="#000" stroke-width="2" fill="#c1e4f7"/><use xlink:href="#b" transform="matrix(1,0,0,1,305,425) translate(10.5 18.15)"/><path d="M260 420h40v40h-40z" stroke="#000" stroke-width="2" fill="#c1e4f7"/><use xlink:href="#b" transform="matrix(1,0,0,1,265,425) translate(10.5 18.15)"/><path d="M180 420h40v40h-40z" stroke="#000" stroke-width="2" fill="#ffeca9"/><use xlink:href="#a" transform="matrix(1,0,0,1,185,425) translate(10.5 18.15)"/><path d="M420 420h40v40h-40z" stroke="#000" stroke-width="2" fill="#c1e4f7"/><use xlink:href="#a" transform="matrix(1,0,0,1,425,425) translate(10.5 18.15)"/><path d="M380 420h40v40h-40z" stroke="#000" stroke-width="2" fill="#c1e4f7"/><use xlink:href="#c" transform="matrix(1,0,0,1,385,425) translate(10.5 18.15)"/><path d="M220 420h40v40h-40z" stroke="#000" stroke-opacity="0" stroke-width="2" fill="#fff" fill-opacity="0"/><use xlink:href="#d" transform="matrix(1,0,0,1,225,425) translate(8.671913580246915 19.830555555555552)"/><path d="M700 420h40v40h-40z" stroke="#000" stroke-width="2" fill="#c7e8ac"/><use xlink:href="#a" transform="matrix(1,0,0,1,705,425) translate(10.5 18.15)"/><path d="M580 420h40v40h-40z" stroke="#000" stroke-width="2" fill="#c1e4f7"/><use xlink:href="#b" transform="matrix(1,0,0,1,585,425) translate(10.5 18.15)"/><path d="M540 420h40v40h-40z" stroke="#000" stroke-width="2" fill="#c1e4f7"/><use xlink:href="#b" transform="matrix(1,0,0,1,545,425) translate(10.5 18.15)"/><path d="M660 420h40v40h-40z" stroke="#000" stroke-width="2" fill="#ffeca9"/><use xlink:href="#a" transform="matrix(1,0,0,1,665,425) translate(10.5 18.15)"/><path d="M780 420h40v40h-40z" stroke="#000" stroke-width="2" fill="#c7e8ac"/><use xlink:href="#a" transform="matrix(1,0,0,1,785,425) translate(10.5 18.15)"/><path d="M740 420h40v40h-40z" stroke="#000" stroke-width="2" fill="#c7e8ac"/><use xlink:href="#c" transform="matrix(1,0,0,1,745,425) translate(10.5 18.15)"/><path d="M620 420h40v40h-40z" stroke="#000" stroke-opacity="0" stroke-width="2" fill="#fff" fill-opacity="0"/><use xlink:href="#d" transform="matrix(1,0,0,1,625,425) translate(8.671913580246915 19.830555555555552)"/><path d="M980 420h40v40h-40z" stroke="#000" stroke-width="2" fill="#c1e4f7"/><use xlink:href="#a" transform="matrix(1,0,0,1,985,425) translate(10.5 18.15)"/><path d="M940 420h40v40h-40z" stroke="#000" stroke-width="2" fill="#c1e4f7"/><use xlink:href="#b" transform="matrix(1,0,0,1,945,425) translate(10.5 18.15)"/><path d="M900 420h40v40h-40z" stroke="#000" stroke-width="2" fill="#c1e4f7"/><use xlink:href="#b" transform="matrix(1,0,0,1,905,425) translate(10.5 18.15)"/><path d="M1100 420h40v40h-40z" stroke="#000" stroke-width="2" fill="#ffeca9"/><use xlink:href="#a" transform="matrix(1,0,0,1,1105,425) translate(10.5 18.15)"/><path d="M1140 420h40v40h-40z" stroke="#000" stroke-width="2" fill="#c7e8ac"/><use xlink:href="#a" transform="matrix(1,0,0,1,1145,425) translate(10.5 18.15)"/><path d="M1020 420h40v40h-40z" stroke="#000" stroke-width="2" fill="#c1e4f7"/><use xlink:href="#c" transform="matrix(1,0,0,1,1025,425) translate(10.5 18.15)"/><path d="M1060 420h40v40h-40z" stroke="#000" stroke-opacity="0" stroke-width="2" fill="#fff" fill-opacity="0"/><use xlink:href="#d" transform="matrix(1,0,0,1,1065,425) translate(8.671913580246915 19.830555555555552)"/><path d="M680 240h40v40h-40z" stroke="#000" stroke-width="2" fill="#fff"/><use xlink:href="#a" transform="matrix(1,0,0,1,685,245) translate(10.5 18.15)"/><path d="M640 240h40v40h-40z" stroke="#000" stroke-width="2" fill="#fff"/><use xlink:href="#b" transform="matrix(1,0,0,1,645,245) translate(10.5 18.15)"/><path d="M600 240h40v40h-40z" stroke="#000" stroke-width="2" fill="#fff"/><use xlink:href="#b" transform="matrix(1,0,0,1,605,245) translate(10.5 18.15)"/><path d="M560 240h40v40h-40z" stroke="#000" stroke-width="2" fill="#fff"/><use xlink:href="#a" transform="matrix(1,0,0,1,565,245) translate(10.5 18.15)"/><path d="M760 240h40v40h-40z" stroke="#000" stroke-width="2" fill="#fff"/><use xlink:href="#a" transform="matrix(1,0,0,1,765,245) translate(10.5 18.15)"/><path d="M720 240h40v40h-40z" stroke="#000" stroke-width="2" fill="#fff"/><use xlink:href="#c" transform="matrix(1,0,0,1,725,245) translate(10.5 18.15)"/><path d="M560 200h40v40h-40z" stroke="#000" stroke-opacity="0" stroke-width="2" fill="#fff" fill-opacity="0"/><use xlink:href="#e" transform="matrix(1,0,0,1,565,205) translate(10.5 18.15)"/><path d="M600 200h40v40h-40z" stroke="#000" stroke-opacity="0" stroke-width="2" fill="#fff" fill-opacity="0"/><use xlink:href="#a" transform="matrix(1,0,0,1,605,205) translate(10.5 18.15)"/><path d="M640 200h40v40h-40z" stroke="#000" stroke-opacity="0" stroke-width="2" fill="#fff" fill-opacity="0"/><use xlink:href="#b" transform="matrix(1,0,0,1,645,205) translate(10.5 18.15)"/><path d="M680 200h40v40h-40z" stroke="#000" stroke-opacity="0" stroke-width="2" fill="#fff" fill-opacity="0"/><use xlink:href="#c" transform="matrix(1,0,0,1,685,205) translate(10.5 18.15)"/><path d="M720 200h40v40h-40z" stroke="#000" stroke-opacity="0" stroke-width="2" fill="#fff" fill-opacity="0"/><use xlink:href="#f" transform="matrix(1,0,0,1,725,205) translate(10.5 18.15)"/><path d="M760 200h40v40h-40z" stroke="#000" stroke-opacity="0" stroke-width="2" fill="#fff" fill-opacity="0"/><use xlink:href="#g" transform="matrix(1,0,0,1,765,205) translate(10.5 18.15)"/><path d="M180 380h40v40h-40z" stroke="#000" stroke-opacity="0" stroke-width="2" fill="#fff" fill-opacity="0"/><use xlink:href="#h" transform="matrix(1,0,0,1,185,385) translate(9.944444444444445 19.927777777777777)"/><path d="M260 380h40v40h-40z" stroke="#000" stroke-opacity="0" stroke-width="2" fill="#fff" fill-opacity="0"/><use xlink:href="#a" transform="matrix(1,0,0,1,265,385) translate(10.5 18.15)"/><path d="M300 380h40v40h-40z" stroke="#000" stroke-opacity="0" stroke-width="2" fill="#fff" fill-opacity="0"/><use xlink:href="#b" transform="matrix(1,0,0,1,305,385) translate(10.5 18.15)"/><path d="M340 380h40v40h-40z" stroke="#000" stroke-opacity="0" stroke-width="2" fill="#fff" fill-opacity="0"/><use xlink:href="#c" transform="matrix(1,0,0,1,345,385) translate(10.5 18.15)"/><path d="M380 380h40v40h-40z" stroke="#000" stroke-opacity="0" stroke-width="2" fill="#fff" fill-opacity="0"/><use xlink:href="#f" transform="matrix(1,0,0,1,385,385) translate(10.5 18.15)"/><path d="M420 380h40v40h-40z" stroke="#000" stroke-opacity="0" stroke-width="2" fill="#fff" fill-opacity="0"/><use xlink:href="#g" transform="matrix(1,0,0,1,425,385) translate(10.5 18.15)"/><path d="M660 380h40v40h-40z" stroke="#000" stroke-opacity="0" stroke-width="2" fill="#fff" fill-opacity="0"/><use xlink:href="#h" transform="matrix(1,0,0,1,665,385) translate(9.944444444444445 19.927777777777777)"/><path d="M540 380h40v40h-40z" stroke="#000" stroke-opacity="0" stroke-width="2" fill="#fff" fill-opacity="0"/><use xlink:href="#a" transform="matrix(1,0,0,1,545,385) translate(10.5 18.15)"/><path d="M580 380h40v40h-40z" stroke="#000" stroke-opacity="0" stroke-width="2" fill="#fff" fill-opacity="0"/><use xlink:href="#b" transform="matrix(1,0,0,1,585,385) translate(10.5 18.15)"/><path d="M700 380h40v40h-40z" stroke="#000" stroke-opacity="0" stroke-width="2" fill="#fff" fill-opacity="0"/><use xlink:href="#i" transform="matrix(1,0,0,1,705,385) translate(9.944444444444445 19.927777777777777)"/><path d="M740 380h40v40h-40z" stroke="#000" stroke-opacity="0" stroke-width="2" fill="#fff" fill-opacity="0"/><use xlink:href="#f" transform="matrix(1,0,0,1,745,385) translate(10.5 18.15)"/><path d="M780 380h40v40h-40z" stroke="#000" stroke-opacity="0" stroke-width="2" fill="#fff" fill-opacity="0"/><use xlink:href="#g" transform="matrix(1,0,0,1,785,385) translate(10.5 18.15)"/><path d="M1100 380h40v40h-40z" stroke="#000" stroke-opacity="0" stroke-width="2" fill="#fff" fill-opacity="0"/><use xlink:href="#h" transform="matrix(1,0,0,1,1105,385) translate(9.944444444444445 19.927777777777777)"/><path d="M900 380h40v40h-40z" stroke="#000" stroke-opacity="0" stroke-width="2" fill="#fff" fill-opacity="0"/><use xlink:href="#a" transform="matrix(1,0,0,1,905,385) translate(10.5 18.15)"/><path d="M940 380h40v40h-40z" stroke="#000" stroke-opacity="0" stroke-width="2" fill="#fff" fill-opacity="0"/><use xlink:href="#b" transform="matrix(1,0,0,1,945,385) translate(10.5 18.15)"/><path d="M980 380h40v40h-40z" stroke="#000" stroke-opacity="0" stroke-width="2" fill="#fff" fill-opacity="0"/><use xlink:href="#c" transform="matrix(1,0,0,1,985,385) translate(10.5 18.15)"/><path d="M1020 380h40v40h-40z" stroke="#000" stroke-opacity="0" stroke-width="2" fill="#fff" fill-opacity="0"/><use xlink:href="#f" transform="matrix(1,0,0,1,1025,385) translate(10.5 18.15)"/><path d="M1140 380h40v40h-40z" stroke="#000" stroke-opacity="0" stroke-width="2" fill="#fff" fill-opacity="0"/><use xlink:href="#j" transform="matrix(1,0,0,1,1145,385) translate(9.944444444444445 19.927777777777777)"/><path d="M659.05 281.3l-281.48 92.9" stroke="#000" stroke-width="2" fill="none"/><path d="M663.16 281l-3.82 1.27-.42-1.27h4.24z"/><path d="M363.07 379l12.1-8.9 2.9 8.82z" stroke="#000" stroke-width="2"/><path d="M680.2 281.98l15.04 79.84" stroke="#000" stroke-width="2" fill="none"/><path d="M679 281h2.02l.15.82-1.96.37-.74-3.96.54-.1z"/><path d="M698.07 376.82l-7.2-13.16 9.1-1.72z" stroke="#000" stroke-width="2"/><path d="M700.96 281.28l321.28 93.55" stroke="#000" stroke-width="2" fill="none"/><path d="M700.7 282.25l-3.86-1.13.04-.12h4.2z"/><path d="M1036.9 379.1l-15 .46 2.6-8.9z" stroke="#000" stroke-width="2"/><defs><path d="M110-14l48 5v9H32v-9l48-5v-192l-48 17v-10l69-39h9v224" id="k"/><use transform="matrix(0.05,0,0,0.05,0,0)" xlink:href="#k" id="a"/><path d="M24-231c66-21 156 2 128 81C132-92 78-66 39-27h121V0H16v-26l59-54c26-25 47-47 47-97 0-48-47-57-81-37l-6 29H24v-46" id="l"/><use transform="matrix(0.05,0,0,0.05,0,0)" xlink:href="#l" id="b"/><path d="M104-123c39 3 61 21 62 59C167 7 83 12 19-4l-2-50h12c2 29 16 43 51 43 38 0 54-19 54-55 2-43-34-49-75-50v-14c37 0 64-7 64-48 0-47-47-56-81-36l-6 29H24v-46c51-13 135-13 131 51-2 34-20 52-51 57" id="m"/><use transform="matrix(0.05,0,0,0.05,0,0)" xlink:href="#m" id="c"/><path d="M111-111v75H92v-75H18v-17h74v-75h19v75h74v17h-74" id="n"/><use transform="matrix(0.06234567901234567,0,0,0.06234567901234567,0,0)" xlink:href="#n" id="d"/><path d="M90-239c59 0 76 52 76 120S152 4 89 4C31 4 14-51 14-119c0-67 17-120 76-120zM89-10c45-6 45-58 45-109 0-50 0-101-45-106-45 4-43 57-43 106 0 50-2 104 43 109" id="o"/><use transform="matrix(0.05,0,0,0.05,0,0)" xlink:href="#o" id="e"/><path d="M142-52V0h-30v-52H7v-23l115-162h20v160h32v25h-32zm-30-25l-1-119L27-77h85" id="p"/><use transform="matrix(0.05,0,0,0.05,0,0)" xlink:href="#p" id="f"/><path d="M134-68c4-52-44-63-88-51H29v-117h119v27H45v75c60-10 121-2 121 64C166 3 87 15 23-4l-2-50h12c1 28 14 43 47 43 39 0 51-20 54-57" id="q"/><use transform="matrix(0.05,0,0,0.05,0,0)" xlink:href="#q" id="g"/><path fill="#c92d39" d="M90-239c59 0 76 52 76 120S152 4 89 4C31 4 14-51 14-119c0-67 17-120 76-120zm12 218c20-45 19-147 0-194-29-20-34 20-36 53-1 47-4 109 11 141 6 10 21 10 25 0" id="r"/><use transform="matrix(0.056172839506172835,0,0,0.056172839506172835,0,0)" xlink:href="#r" id="h"/><path fill="#c92d39" d="M108-123c37 3 59 22 60 59C169 8 81 11 16-4l-2-57h16c4 25 8 49 41 47 31-1 44-21 45-52 2-37-24-47-61-46v-22c33 1 52-9 50-44 6-38-35-53-61-33l-7 34H21v-54c52-13 140-14 136 51-2 33-19 52-49 57" id="s"/><use transform="matrix(0.056172839506172835,0,0,0.056172839506172835,0,0)" xlink:href="#s" id="i"/><path fill="#c92d39" d="M46-135c59-12 121 1 121 65C167 6 84 13 17-4l-3-57h17c4 25 9 49 44 47 30-2 40-23 40-54 0-46-35-65-71-47H26v-121h123v39H46v62" id="t"/><use transform="matrix(0.056172839506172835,0,0,0.056172839506172835,0,0)" xlink:href="#t" id="j"/></defs></g></svg>